<svg id="prefix__Layer_1" data-name="Layer 1" xmlns="http://www.w3.org/2000/svg" viewBox="0 0 248 291">
    <defs>
        <style>
            .prefix__cls-1,
            .prefix__cls-3 {
                fill: hsl(60, 100%, 97%)
            }

            .prefix__cls-1,
            .prefix__cls-4,
            .prefix__cls-6 {
                fill-rule: evenodd
            }

            .prefix__cls-2,
            .prefix__cls-5 {
                fill: none;
                stroke-linecap: round;
                stroke-width: .57px;
                stroke: #000
            }

            .prefix__cls-2 {
                stroke-linejoin: round
            }

            .prefix__cls-4 {
                fill: #fefefe
            }

            .prefix__cls-5 {
                stroke-miterlimit: 22.93
            }
        </style>
    </defs>
    <path class="prefix__cls-1"
        d="M124.66 196.52c-.38-.1 5.07 3.69 5.56 5.37a2.42 2.42 0 01-2.24 2.84c-.56.07-.94 1.37-1.74 1.56s-2.46-.94-2.53-.82c-1 1.59-5.85-3.66-6.1-8.78-.13-2.57.68-12.07 1.06-15.62 2-18 7-59.13 19.08-73.51 1-1.21 1.75.53 2.58.72 1.31.31 2.51 1.12 3.87 5.65 1.43 4.79-.56 16.31-4.63 19-3.44 17.42-12.17 44.42-6.14 62.75.64 2-1.16 4-2.67 3.35-1-.43-1.81-1.44-2.92-4.8-.28-.83-1.89-4.11-2.48-4.39-1.36-.74-1 4.72-.7 6.72" />
    <path class="prefix__cls-2" d="M128 204.73c2.72.14 3.07-3.28.9-4.89-2.8-2.08-4.46-2.73-4.71-7.37" />
    <path class="prefix__cls-2"
        d="M124 195.37a15.17 15.17 0 001.32 6.2c1.38 3.29-3.19 7-6.29-.15-1.31-3-1.58-7-1.24-12.82 1.06-10.65 6.08-61.49 19-80" />
    <path class="prefix__cls-2"
        d="M124.06 196.52c-.27-2 .19-7.46 1.55-6.72.59.28 1.92 3.55 2.19 4.39 1.12 3.36 1.66 4.35 2.64 4.8 2.43 1.12 3.63-1.32 3.1-3a43.61 43.61 0 01-2.35-16.19c.42-14.86 4.92-32.47 7.78-46.93M126.29 190.72c-.41-1-1.32-2.44-2.71-1.05" />
    <path class="prefix__cls-2" d="M123.71 205.47c3.52 2.54 5.52-1.23 3.55-3.63-2.21-2.7-3.27-4.27-3.21-8.2" />
    <path class="prefix__cls-1"
        d="M131.34 241.43h21a.66.66 0 01.64.64l1 14.16h-33.63c-.63-5.93 3.71-7.72 8.83-10.27 2-1.47 2.16-4.53 2.16-4.53z" />
    <path class="prefix__cls-2"
        d="M131.34 241.43h21a.66.66 0 01.64.64l1 14.16h-33.63c-.63-5.93 3.71-7.72 8.83-10.27 2-1.47 2.16-4.53 2.16-4.53z" />
    <rect class="prefix__cls-3" x="119.71" y="253.97" width="35.26" height="4.31" rx=".64" ry=".64" />
    <rect class="prefix__cls-2" x="119.71" y="253.97" width="35.26" height="4.31" rx=".64" ry=".64" />
    <path class="prefix__cls-1"
        d="M152 241.43h21a.66.66 0 01.64.64l1 14.16H141c-.63-5.93 3.71-7.72 8.83-10.27 2.03-1.47 2.17-4.53 2.17-4.53z" />
    <path class="prefix__cls-2"
        d="M152 241.43h21a.66.66 0 01.64.64l1 14.16H141c-.63-5.93 3.71-7.72 8.83-10.27 2.03-1.47 2.17-4.53 2.17-4.53z" />
    <rect class="prefix__cls-3" x="140.39" y="253.97" width="35.26" height="4.31" rx=".64" ry=".64" />
    <rect class="prefix__cls-2" x="140.39" y="253.97" width="35.26" height="4.31" rx=".64" ry=".64" />
    <path class="prefix__cls-1"
        d="M137.25 80.81v17c0 22.61-10.28 27.38-10.92 50.63-.12 4.25 3.68 3.72 4.33 9.43 4.8 1.17 17.65-3.52 22.45-2.36 4.78-1.16 17.42 8.34 22.21 7.17 8.38-36.98-9.32-44.17-9.32-63.41V80.81c0-18.94-28.73-18.29-28.75 0z" />
    <path class="prefix__cls-2"
        d="M137.25 80.81v17c0 22.61-10.28 27.38-10.92 50.63-.12 4.25 3.68 3.72 4.33 9.43 4.8 1.17 17.65-3.52 22.45-2.36 4.78-1.16 17.42 8.34 22.21 7.17 8.38-36.98-9.32-44.17-9.32-63.41V80.81c0-18.94-28.73-18.29-28.75 0z" />
    <path class="prefix__cls-1"
        d="M137.25 80.81v17a64 64 0 01-.42 7.53h29.77a31.3 31.3 0 01-.59-6V80.88c-.01-19.01-28.74-18.36-28.76-.07z" />
    <path class="prefix__cls-2"
        d="M137.25 80.81v17a64 64 0 01-.42 7.53h29.77a31.3 31.3 0 01-.59-6V80.88c-.01-19.01-28.74-18.36-28.76-.07z" />
    <path class="prefix__cls-1" d="M165.94 79.3c-1.42-16.88-27.1-16.33-28.62 0z" />
    <path class="prefix__cls-2" d="M165.94 79.3c-1.42-16.88-27.1-16.33-28.62 0z" />
    <path class="prefix__cls-1"
        d="M177.26 147.78c0 .21 0 .42.05.62.18 9.67-2.94 15-2.92 23.83.06 19.15.58 68.39.52 69.38h-44.75s-.39-50.1-.12-68.88c.15-10-2.75-12.87-3.83-24.22a5.88 5.88 0 010-.73z" />
    <path class="prefix__cls-2"
        d="M177.26 147.78c0 .21 0 .42.05.62.18 9.67-2.94 15-2.92 23.83.06 19.15.58 68.39.52 69.38h-44.75s-.39-50.1-.12-68.88c.15-10-2.75-12.87-3.83-24.22a5.88 5.88 0 010-.73z" />
    <path class="prefix__cls-4" d="M138.52 90.78a1.68 1.68 0 10-1.67-1.68 1.67 1.67 0 001.67 1.68z" />
    <path class="prefix__cls-2" d="M138.52 90.78a1.68 1.68 0 10-1.67-1.68 1.67 1.67 0 001.67 1.68z" />
    <path class="prefix__cls-4" d="M152.55 87.43a1.68 1.68 0 101.67 1.67 1.67 1.67 0 00-1.67-1.67z" />
    <path class="prefix__cls-2"
        d="M152.55 87.43a1.68 1.68 0 101.67 1.67 1.67 1.67 0 00-1.67-1.67zM151.82 172.93c0-4.09-6.71-3.7-9.17-9.52" />
    <path class="prefix__cls-5" d="M139.15 82.62a3.39 3.39 0 00-1.93.3M151.84 82.62a3.36 3.36 0 011.93.3" />
    <path class="prefix__cls-1" d="M165.74 102.7h-28.5a2 2 0 100 4h28.5a2 2 0 000-4z" />
    <path class="prefix__cls-5" d="M165.74 102.7h-28.5a2 2 0 100 4h28.5a2 2 0 000-4zM166.01 79.15h-43.85" />
    <path class="prefix__cls-6"
        d="M174.4 171.47l-8.53-38.58c-.1.74.91 7.88 1.84 14.89 0 .27 1-.3 1.07 0 1.82 13.56 5.07 30.31 3.06 43.68-.59 3.9 2.21 4.92 2.07 4.64a7.78 7.78 0 01-.47-4.78c.37-2 1.68-3 1-4z" />
    <path class="prefix__cls-5"
        d="M174.4 171.47l-8.53-38.58c-.1.74.91 7.88 1.84 14.89 0 .27 1-.3 1.07 0 1.82 13.56 5.07 30.31 3.06 43.68-.59 3.9 2.21 4.92 2.07 4.64a7.78 7.78 0 01-.47-4.78c.37-2 1.68-3 1-4z" />
    <path class="prefix__cls-6"
        d="M130.33 127.3c-1.25 3.73-5.42 14-5.14 22.06.2 5.82 1 8.68 3.2 15.78 1.58 5.15 1.55 10.4 1.67 7.26.34-8.73-4.15-17.29-3.87-24.62a71.73 71.73 0 014.14-20.48z" />
    <path class="prefix__cls-5"
        d="M130.33 127.3c-1.25 3.73-5.42 14-5.14 22.06.2 5.82 1 8.68 3.2 15.78 1.58 5.15 1.55 10.4 1.67 7.26.34-8.73-4.15-17.29-3.87-24.62a71.73 71.73 0 014.14-20.48z" />
    <path class="prefix__cls-6" d="M136.84 106.65l-.43 1.77a142.27 142.27 0 0116.78-1.7z" />
    <path class="prefix__cls-5" d="M136.84 106.65l-.43 1.77a142.27 142.27 0 0116.78-1.7z" />
    <path class="prefix__cls-6" d="M131.16 241.58l-.44 1.76a148.24 148.24 0 0116.79-1.7z" />
    <path class="prefix__cls-5" d="M131.16 241.58l-.44 1.76a148.24 148.24 0 0116.79-1.7z" />
    <path class="prefix__cls-6" d="M152.12 241.58l-.44 1.76a147.87 147.87 0 0116.79-1.7z" />
    <path class="prefix__cls-5" d="M152.12 241.58l-.44 1.76a147.87 147.87 0 0116.79-1.7z" />
    <path class="prefix__cls-6" d="M137.69 79.08l-.43 1.77a142.27 142.27 0 0116.74-1.7z" />
    <path class="prefix__cls-5"
        d="M137.69 79.08l-.43 1.77a142.27 142.27 0 0116.74-1.7zM142.72 90.83a2.53 2.53 0 105.05 0" />
    <path class="prefix__cls-6" d="M138.52 89.1a.2.2 0 00-.19.2.2.2 0 00.19.19.19.19 0 00.19-.19.19.19 0 00-.19-.2z" />
    <path class="prefix__cls-2" d="M138.52 89.1a.2.2 0 00-.19.2.2.2 0 00.19.19.19.19 0 00.19-.19.19.19 0 00-.19-.2z" />
    <path class="prefix__cls-6" d="M152.74 89.49a.2.2 0 00.19-.2.2.2 0 00-.19-.19.19.19 0 00-.19.19.19.19 0 00.19.2z" />
    <path class="prefix__cls-2" d="M152.74 89.49a.2.2 0 00.19-.2.2.2 0 00-.19-.19.19.19 0 00-.19.19.19.19 0 00.19.2z" />
    <path class="prefix__cls-5" d="M151.79 241.61v-68.8" />
    <path class="prefix__cls-1"
        d="M181.4 196.52c.69-.18-1.52 5.45-1.16 6.49.7 2 3.69.1 4.25-.81.28-.45 4 2.6 4.25-5.51.08-2.57-1.71-12.15-1.9-15.62-.87-16-6.61-55.82-19.92-72.57-1-1.25-1.85-.41-2.67-.22-1.31.31-2.5 1.12-3.78 5.65-1.35 4.79.83 16.31 4.95 19 3.1 14.46 7.9 32.07 8.56 46.93.15 3.18.52 5.42 0 7.26-.43 1.55-1.65 2.64-2.44 5.55-.54 2 2.3 6.75 3.79 6.08 1-.44 1.22-1.16 2.27-4.52.27-.84 1.54-4.11 2.13-4.39 1.34-.74 1.89 4.72 1.66 6.72" />
    <path class="prefix__cls-2"
        d="M181.44 195.37a15 15 0 01-1.22 6.2c-.55 1.37.32 2 1.32 2.07 1.4.15 2.49-.85 3.54-3.65a19.14 19.14 0 00.91-7.43c-.12-1.44 1.71-1.79 1.55-4-1.24-10.65-2.71-52.77-20.25-80.32" />
    <path class="prefix__cls-2"
        d="M181.4 196.52c.23-2-.32-7.46-1.66-6.72-.59.28-1.86 3.55-2.13 4.39-.42 1.34-.54 2.92-.85 3.65-1.08 2.44-4.3-.73-4.83-2.92-1-4.21 1.88-7.31 2.06-7.84.63-1.83.09-5 0-7.26-.66-14.86-5.46-32.47-8.56-46.93" />
    <path class="prefix__cls-1"
        d="M181.26 190.9c.87 3 0 11.45-2.76 13.1-1.34.8-3.13.17-3.33-.71-.5-2.13.65-2.68 1.22-5.77a25.26 25.26 0 00.09-8.12c-.38-2.07 2.28-3.52 4.22.2a5.41 5.41 0 01.56 1.3z" />
    <path class="prefix__cls-5"
        d="M181.26 190.9c.87 3 0 11.45-2.76 13.1-1.34.8-3.13.17-3.33-.71-.5-2.13.65-2.68 1.22-5.77a25.26 25.26 0 00.09-8.12c-.38-2.07 2.28-3.52 4.22.2a5.41 5.41 0 01.56 1.3zM187.12 185.1c-.1.55 1.87 7.37 1.48 12.17-.22 2.67-1.85 6.13-4.11 4.93" />
    <path class="prefix__cls-1"
        d="M179.4 183.79a4.1 4.1 0 00-3.88 4.2 3.92 3.92 0 003.73 4.2 4.1 4.1 0 003.88-4.2 3.93 3.93 0 00-3.73-4.2M186.07 184.5c-.81 0-3.82 7.4-.88 7.69s1.15 5 2 5 1-2.64 1-3.86-1.3-8.85-2.12-8.85" />
    <path class="prefix__cls-5" d="M176.62 191.47c0-.87-.75-1.14-.89.18a5 5 0 00.82 3.26" />
    <path
        d="M106.77 32.72h-24a23.52 23.52 0 00-23.42 23.45 23.53 23.53 0 0023.46 23.46h18.56c.82 1.91 3.13 4 5.7 5.17 5.72 2.63 12.83 1.46 10 .26-3.4-1.43-4.07-4-3.18-6.54a23.54 23.54 0 0016.36-22.35 23.52 23.52 0 00-23.48-23.45z"
        fill="#373435" fill-rule="evenodd" />
    <path
        d="M106.77 32.72h-24a23.52 23.52 0 00-23.42 23.45h0a23.53 23.53 0 0023.46 23.46h18.56c.82 1.91 3.13 4 5.7 5.17 5.72 2.63 12.83 1.46 10 .26-3.4-1.43-4.07-4-3.18-6.54a23.54 23.54 0 0016.36-22.35h0a23.52 23.52 0 00-23.48-23.45z"
        stroke="#373435" stroke-miterlimit="22.93" fill="none" stroke-linecap="round" stroke-width=".57" />
    <path
        d="M81.44 57.88c5.74-5.61 7.9-13.9 4.86-9.81-1.49 2-5 13.83-4.62 13 .9-2 5.64-9.78 4.3-2.74-.59 3.12-.09 3.57 2.56 1.06 4.87-4.61.34-7.51.08.93-.07 2.13 3.95.06 5.74-2.53 5.54-8 2.86-13.19-.21-1.53-2.11 8 4.46 5.64 7.9-4.07 2.18-6.13-1.54-2.21-2.91 3.27-.22.89-1 5.88 1.2 5.1.91-.32 1.48-2.27 1.43-.71-.06 2 3.19-1.21 3.46-3.44.72-5.86-5 2.52-2.26 2.39 1.35-.06 3-.39 3.47-2"
        stroke="#fefefe" stroke-miterlimit="22.93" fill="none" stroke-linecap="round" stroke-width=".57" />
</svg>